<?xml version="1.0" encoding="utf-8"?>
<!-- Generator: Adobe Illustrator 16.0.3, SVG Export Plug-In . SVG Version: 6.00 Build 0)  -->
<!DOCTYPE svg PUBLIC "-//W3C//DTD SVG 1.1//EN" "http://www.w3.org/Graphics/SVG/1.1/DTD/svg11.dtd">
<svg version="1.1" id="Layer_1" xmlns="http://www.w3.org/2000/svg" xmlns:xlink="http://www.w3.org/1999/xlink" x="0px" y="0px"
	 width="640px" height="656px" viewBox="0 0 640 656" enable-background="new 0 0 640 656" xml:space="preserve">
<path fill="#5D5D5D" d="M85.175,568.688c0,31.17,25.349,56.813,56.268,56.813c2.417,0,282.297,0,282.297,0
	c22.338,0,44.778-18.729,44.778-41.065V515.34h33.819c16.646,0,32.791-7.275,44.885-19.247
	c12.186-12.057,19.217-28.593,19.217-45.307V315.424c0-33.978-29.112-63.244-64.102-63.244H468.52v-13.562
	c0-0.649-2.209-1.285-2.281-1.91c17.13-12.662,27.222-33.231,27.222-55.894c0-35.232-27.527-65.141-61.953-68.231
	c-8.6-56.102-57.333-99.083-115.84-99.083c-49.474,0-91.91,30.82-108.985,74.235c-4.694-0.851-9.584-1.211-14.523-1.211
	c-43.941,0.006-77.767,37.136-78.599,79.976v193.625c-6.12,10.508-15.979,24.327-15.979,39.205
	c0,32.442,25.992,58.832,58.336,58.832c0.398,0,0.483-0.02,0.483-0.024v17.087c-6.12-1.849-8.531-2.889-13.237-2.889
	c-17.424,0-31.567,14.125-31.567,31.549c0,5.324,1.31,10.465,3.635,14.871C97.452,528.247,85.175,547.115,85.175,568.688z
	 M155.843,503.877c0,3.538-1.457,6.744-3.801,9.052c-2.301,2.266-5.453,3.672-8.929,3.672c-3.666,0-6.958-1.565-9.284-4.058
	c-2.124-2.276-3.439-5.318-3.439-8.672c0-7.014,5.71-12.724,12.723-12.724C150.133,491.153,155.843,496.863,155.843,503.877z
	 M468.52,484.74V282.78h33.819c19.64,0,39.621,13.011,39.621,32.644V450.78c0,19.639-19.981,33.96-39.621,33.96H468.52z
	 M395.08,349.936c0-8.543,6.763-15.465,15.3-15.465c8.544,0,15.3,6.92,15.3,15.465V567.74c0,8.544-6.756,15.466-15.3,15.466
	c-8.537,0-15.3-6.922-15.3-15.466V349.936z M327.76,349.936c0-8.543,6.758-15.465,15.3-15.465c8.544,0,15.302,6.92,15.302,15.465
	V567.74c0,8.544-6.758,15.466-15.302,15.466c-8.542,0-15.3-6.922-15.3-15.466V349.936z M266.56,349.936
	c0-8.543,6.763-15.465,15.3-15.465c8.538,0,15.3,6.92,15.3,15.465V567.74c0,8.544-6.757,15.466-15.3,15.466s-15.3-6.922-15.3-15.466
	V349.936z M199.473,583.205c0-1.928,0.281-3.789,0.759-5.563c2.46-9.229,10.869-16.064,20.869-16.064
	c2.252,0,4.425,0.35,6.463,0.992c8.776,2.754,15.165,10.961,15.165,20.637c0,11.922-9.7,21.621-21.628,21.621
	C209.173,604.827,199.473,595.127,199.473,583.205z M199.24,349.936c0-8.543,6.756-15.465,15.3-15.465
	c8.537,0,15.3,6.92,15.3,15.465v193.343c0-0.343-4.106-0.521-6.303-0.521c-9.187,0-18.177,3.072-24.296,8.237L199.24,349.936
	L199.24,349.936z M187,252.18h250.92v55.08H187V252.18z M171.988,221.58c-8.844,0-15.588,8.188-15.588,17.038v192.633
	c0,0.007-0.661,0.024-0.979,0.024c-17.638,0-31.463-14.303-31.463-31.946c0-11.285,7.956-21.193,14.076-26.879
	c0,0-0.189-205.455-0.184-205.822c0.275-14.394,5.649-27.962,15.851-38.317c10.416-10.569,24.474-16.793,39.027-16.793
	c14.149,0,29.951,5.067,29.951,5.067l7.662-19.547c6.64-16.891,18.06-31.316,33.048-41.714
	c15.306-10.618,33.287-16.236,52.008-16.236c21.964,0,43.189,7.895,59.762,22.252c16.427,14.223,27.271,33.789,30.539,55.117
	l3.028,19.768l19.939,1.756c21.396,1.921,38.146,20.478,38.146,42.338c0,11.383-4.438,21.383-12.484,29.615
	c-7.963,8.14-18.44,11.646-29.48,11.646H171.988L171.988,221.58z M112.226,568.412c0-16.291,13.256-29.541,29.547-29.541
	c5.275,0,10.232,1.4,14.529,3.831c8.954,5.086,15.012,14.7,15.012,25.71c0,11.011-6.059,20.625-15.012,25.711
	c-4.296,2.436-9.253,3.837-14.529,3.837C125.482,597.96,112.226,584.704,112.226,568.412z"/>
</svg>
